<?xml version="1.0" encoding="UTF-8" standalone="no"?>
<svg
   width="1700"
   zoomAndPan="magnify"
   viewBox="0 0 1275 749.99997"
   height="1000"
   preserveAspectRatio="xMidYMid"
   version="1.0"
   id="svg459"
   sodipodi:docname="logo2.svg"
   inkscape:version="1.2.2 (b0a8486541, 2022-12-01)"
   xmlns:inkscape="http://www.inkscape.org/namespaces/inkscape"
   xmlns:sodipodi="http://sodipodi.sourceforge.net/DTD/sodipodi-0.dtd"
   xmlns="http://www.w3.org/2000/svg"
   xmlns:svg="http://www.w3.org/2000/svg">
  <sodipodi:namedview
     id="namedview461"
     pagecolor="#ffffff"
     bordercolor="#000000"
     borderopacity="0.25"
     inkscape:showpageshadow="2"
     inkscape:pageopacity="0.0"
     inkscape:pagecheckerboard="0"
     inkscape:deskcolor="#d1d1d1"
     showgrid="false"
     inkscape:zoom="0.118"
     inkscape:cx="1000"
     inkscape:cy="1004.2373"
     inkscape:window-width="1680"
     inkscape:window-height="981"
     inkscape:window-x="1680"
     inkscape:window-y="32"
     inkscape:window-maximized="1"
     inkscape:current-layer="svg459" />
  <defs
     id="defs305">
    <g
       id="g294" />
    <clipPath
       id="82461de91e">
      <rect
         x="0"
         width="379"
         y="0"
         height="624"
         id="rect296" />
    </clipPath>
    <clipPath
       id="7afe82ba81">
      <rect
         x="0"
         width="389"
         y="0"
         height="624"
         id="rect299" />
    </clipPath>
    <clipPath
       id="abef35537b">
      <rect
         x="0"
         width="503"
         y="0"
         height="70"
         id="rect302" />
    </clipPath>
  </defs>
  <g
     transform="matrix(1.3795772,0,0,1.3795772,120.10047,-218.52022)"
     id="g345">
    <g
       clip-path="url(#82461de91e)"
       id="g343">
      <g
         fill="#ffffff"
         fill-opacity="1"
         id="g317">
        <g
           transform="translate(2.710177,586.7441)"
           id="g315">
          <g
             id="g313">
            <path
               d="M 49.859375,0 H 5.1875 v -363.5625 h 44.671875 c 17.882813,0 31.1875,4.41797 39.90625,13.25 8.71875,8.82422 13.078125,22.58594 13.078125,41.28125 v 254.5 c 0,12.929688 -1.82422,23.402344 -5.46875,31.421875 C 93.738281,-15.085938 88.023438,-9.226562 80.234375,-5.53125 72.453125,-1.84375 62.328125,0 49.859375,0 Z m -1.03125,-323.57812 V -39.984375 H 51.9375 c 2.65625,0 4.53125,-0.601563 5.625,-1.8125 1.09375,-1.21875 1.640625,-3.382813 1.640625,-6.5 V -315.26562 c 0,-3.11329 -0.546875,-5.27344 -1.640625,-6.48438 -1.09375,-1.21875 -2.96875,-1.82812 -5.625,-1.82812 z m 0,0"
               id="path311" />
          </g>
        </g>
      </g>
      <g
         fill="#ffffff"
         fill-opacity="1"
         id="g325">
        <g
           transform="translate(110.21491,586.7441)"
           id="g323">
          <g
             id="g321">
            <path
               d="M 42.0625,0 H -1.5625 L 17.65625,-363.5625 H 83.625 L 102.84375,0 H 59.203125 L 57.125,-98.6875 H 44.140625 Z m 3.125,-153.39062 -0.34375,15.23437 H 56.4375 l -0.34375,-15.23437 C 55.75,-167.81641 55.429688,-181.8125 55.140625,-195.375 c -0.292969,-13.5625 -0.585937,-27.11719 -0.875,-40.67187 -0.28125,-13.5625 -0.59375,-27.5 -0.9375,-41.8125 H 47.78125 c -0.34375,21.46093 -0.71875,42.17187 -1.125,62.14062 -0.40625,19.96875 -0.898438,40.74609 -1.46875,62.32813 z m 0,0"
               id="path319" />
          </g>
        </g>
      </g>
      <g
         fill="#ffffff"
         fill-opacity="1"
         id="g333">
        <g
           transform="translate(211.48747,586.7441)"
           id="g331">
          <g
             id="g329">
            <path
               d="M 44.3125,0 H 5.1875 v -363.5625 h 45.53125 l 21.828125,235.625 H 78.25 c -0.574219,-7.26953 -1.234375,-15.78125 -1.984375,-25.53125 -0.75,-9.75781 -1.5,-20.20703 -2.25,-31.34375 -0.75,-11.13281 -1.445313,-22.47266 -2.078125,-34.01562 -0.636719,-11.53907 -1.1875,-22.82032 -1.65625,-33.84375 -0.460938,-11.01954 -0.746094,-21.26563 -0.859375,-30.73438 l -1.03125,-80.15625 H 107.51563 V 0 H 61.984375 l -21.8125,-235.625 h -5.71875 c 0.6875,9.11719 1.492187,19.50781 2.421875,31.17188 0.925781,11.65625 1.789062,24.17968 2.59375,37.5625 0.8125,13.38671 1.535156,27.21093 2.171875,41.46874 0.632813,14.25 1.066406,28.476568 1.296875,42.67188 z m 0,0"
               id="path327" />
          </g>
        </g>
      </g>
      <g
         fill="#ffffff"
         fill-opacity="1"
         id="g341">
        <g
           transform="translate(324.18567,586.7441)"
           id="g339">
          <g
             id="g337">
            <path
               d="M 48.828125,0 H 5.1875 v -363.5625 h 43.640625 z m 0,0"
               id="path335" />
          </g>
        </g>
      </g>
    </g>
  </g>
  <g
     transform="matrix(1.3795772,0,0,1.3795772,607.09123,-218.52022)"
     id="g381">
    <g
       clip-path="url(#7afe82ba81)"
       id="g379">
      <g
         fill="#dcff31"
         fill-opacity="1"
         id="g353">
        <g
           transform="translate(2.686634,586.7441)"
           id="g351">
          <g
             id="g349">
            <path
               d="M 42.0625,0 H -1.5625 L 17.65625,-363.5625 H 83.625 L 102.84375,0 H 59.203125 L 57.125,-98.6875 H 44.140625 Z m 3.125,-153.39062 -0.34375,15.23437 H 56.4375 l -0.34375,-15.23437 C 55.75,-167.81641 55.429688,-181.8125 55.140625,-195.375 c -0.292969,-13.5625 -0.585937,-27.11719 -0.875,-40.67187 -0.28125,-13.5625 -0.59375,-27.5 -0.9375,-41.8125 H 47.78125 c -0.34375,21.46093 -0.71875,42.17187 -1.125,62.14062 -0.40625,19.96875 -0.898438,40.74609 -1.46875,62.32813 z m 0,0"
               id="path347" />
          </g>
        </g>
      </g>
      <g
         fill="#dcff31"
         fill-opacity="1"
         id="g361">
        <g
           transform="translate(103.9592,586.7441)"
           id="g359">
          <g
             id="g357">
            <path
               d="m 5.1875,0 v -363.5625 h 43.640625 v 323.578125 h 25.96875 V 0 Z m 0,0"
               id="path355" />
          </g>
        </g>
      </g>
      <g
         fill="#dcff31"
         fill-opacity="1"
         id="g369">
        <g
           transform="translate(179.78378,586.7441)"
           id="g367">
          <g
             id="g365">
            <path
               d="M 59.203125,-363.5625 H 102.84375 L 83.453125,0 h -65.625 L -1.5625,-363.5625 h 44.15625 l 3.109375,139.71875 c 0.582031,21.92969 1.046875,43.74219 1.390625,65.4375 0.34375,21.69922 0.6875,44.20312 1.03125,67.515625 h 5.546875 c 0.34375,-23.312505 0.71875,-45.816405 1.125,-67.515625 0.40625,-21.69531 0.835937,-43.50781 1.296875,-65.4375 z m 0,0"
               id="path363" />
          </g>
        </g>
      </g>
      <g
         fill="#dcff31"
         fill-opacity="1"
         id="g377">
        <g
           transform="translate(281.05635,586.7441)"
           id="g375">
          <g
             id="g373">
            <path
               d="M 42.0625,0 H -1.5625 L 17.65625,-363.5625 H 83.625 L 102.84375,0 H 59.203125 L 57.125,-98.6875 H 44.140625 Z m 3.125,-153.39062 -0.34375,15.23437 H 56.4375 l -0.34375,-15.23437 C 55.75,-167.81641 55.429688,-181.8125 55.140625,-195.375 c -0.292969,-13.5625 -0.585937,-27.11719 -0.875,-40.67187 -0.28125,-13.5625 -0.59375,-27.5 -0.9375,-41.8125 H 47.78125 c -0.34375,21.46093 -0.71875,42.17187 -1.125,62.14062 -0.40625,19.96875 -0.898438,40.74609 -1.46875,62.32813 z m 0,0"
               id="path371" />
          </g>
        </g>
      </g>
    </g>
  </g>
  <g
     transform="matrix(1.3795772,0,0,1.3795772,317.38001,628.54019)"
     id="g457">
    <g
       clip-path="url(#abef35537b)"
       id="g455">
      <g
         fill="#ffffff"
         fill-opacity="1"
         id="g389">
        <g
           transform="translate(3.430708,51.362859)"
           id="g387">
          <g
             id="g385">
            <path
               d="m 13.859375,-32.875 c 3.582031,0 6.6875,0.671875 9.3125,2.015625 2.625,1.335937 4.632813,3.246094 6.03125,5.734375 1.40625,2.480469 2.109375,5.402344 2.109375,8.765625 0,3.367187 -0.703125,6.28125 -2.109375,8.75 -1.398437,2.46875 -3.40625,4.355469 -6.03125,5.65625 C 20.546875,-0.648438 17.441406,0 13.859375,0 H 3.625 v -32.875 z m 0,29.34375 c 4.25,0 7.488281,-1.125 9.71875,-3.375 2.226563,-2.25 3.34375,-5.398438 3.34375,-9.453125 0,-4.09375 -1.125,-7.285156 -3.375,-9.578125 -2.242187,-2.289062 -5.46875,-3.4375 -9.6875,-3.4375 h -5.9375 v 25.84375 z m 0,0"
               id="path383" />
          </g>
        </g>
      </g>
      <g
         fill="#ffffff"
         fill-opacity="1"
         id="g397">
        <g
           transform="translate(64.181663,51.362859)"
           id="g395">
          <g
             id="g393">
            <path
               d="m 7.921875,-29.375 v 10.984375 H 19.90625 v 3.53125 H 7.921875 V -3.53125 H 21.3125 V 0 H 3.625 V -32.921875 H 21.3125 V -29.375 Z m 0,0"
               id="path391" />
          </g>
        </g>
      </g>
      <g
         fill="#ffffff"
         fill-opacity="1"
         id="g405">
        <g
           transform="translate(115.78435,51.362859)"
           id="g403">
          <g
             id="g401">
            <path
               d="M 30.796875,-32.875 18.390625,0 H 13.4375 L 1.03125,-32.875 H 5.609375 L 15.9375,-4.53125 26.265625,-32.875 Z m 0,0"
               id="path399" />
          </g>
        </g>
      </g>
      <g
         fill="#ffffff"
         fill-opacity="1"
         id="g413">
        <g
           transform="translate(175.07348,51.362859)"
           id="g411">
          <g
             id="g409">
            <path
               d="m 7.921875,-29.375 v 10.984375 H 19.90625 v 3.53125 H 7.921875 V -3.53125 H 21.3125 V 0 H 3.625 V -32.921875 H 21.3125 V -29.375 Z m 0,0"
               id="path407" />
          </g>
        </g>
      </g>
      <g
         fill="#ffffff"
         fill-opacity="1"
         id="g421">
        <g
           transform="translate(226.67617,51.362859)"
           id="g419">
          <g
             id="g417">
            <path
               d="m 7.921875,-3.484375 h 11.5 V 0 H 3.625 v -32.875 h 4.296875 z m 0,0"
               id="path415" />
          </g>
        </g>
      </g>
      <g
         fill="#ffffff"
         fill-opacity="1"
         id="g429">
        <g
           transform="translate(274.45923,51.362859)"
           id="g427">
          <g
             id="g425">
            <path
               d="m 18.53125,0.328125 c -3.054688,0 -5.839844,-0.710937 -8.359375,-2.140625 C 7.660156,-3.25 5.675781,-5.242188 4.21875,-7.796875 c -1.460938,-2.5625 -2.1875,-5.445313 -2.1875,-8.65625 0,-3.207031 0.726562,-6.09375 2.1875,-8.65625 1.457031,-2.5625 3.441406,-4.554687 5.953125,-5.984375 2.519531,-1.4375 5.304687,-2.15625 8.359375,-2.15625 3.082031,0 5.878906,0.71875 8.390625,2.15625 2.519531,1.429688 4.5,3.417969 5.9375,5.96875 1.445313,2.542969 2.171875,5.433594 2.171875,8.671875 0,3.242187 -0.726562,6.132813 -2.171875,8.671875 -1.4375,2.542969 -3.417969,4.53125 -5.9375,5.96875 -2.511719,1.429688 -5.308594,2.140625 -8.390625,2.140625 z m 0,-3.71875 c 2.289062,0 4.351562,-0.535156 6.1875,-1.609375 1.84375,-1.070312 3.289062,-2.597656 4.34375,-4.578125 1.0625,-1.976563 1.59375,-4.269531 1.59375,-6.875 0,-2.644531 -0.53125,-4.945313 -1.59375,-6.90625 -1.054688,-1.96875 -2.492188,-3.484375 -4.3125,-4.546875 -1.824219,-1.070312 -3.898438,-1.609375 -6.21875,-1.609375 -2.324219,0 -4.398438,0.539063 -6.21875,1.609375 -1.824219,1.0625 -3.265625,2.578125 -4.328125,4.546875 -1.054687,1.960937 -1.578125,4.261719 -1.578125,6.90625 0,2.605469 0.523438,4.898437 1.578125,6.875 1.0625,1.980469 2.507813,3.507813 4.34375,4.578125 1.84375,1.074219 3.910156,1.609375 6.203125,1.609375 z m 0,0"
               id="path423" />
          </g>
        </g>
      </g>
      <g
         fill="#ffffff"
         fill-opacity="1"
         id="g437">
        <g
           transform="translate(338.93556,51.362859)"
           id="g435">
          <g
             id="g433">
            <path
               d="m 25.609375,-23.25 c 0,2.742188 -0.9375,5.015625 -2.8125,6.828125 -1.867187,1.804687 -4.71875,2.703125 -8.5625,2.703125 h -6.3125 V 0 H 3.625 v -32.875 h 10.609375 c 3.71875,0 6.539063,0.902344 8.46875,2.703125 1.9375,1.792969 2.90625,4.101563 2.90625,6.921875 z m -11.375,5.984375 c 2.394531,0 4.15625,-0.515625 5.28125,-1.546875 1.132813,-1.039062 1.703125,-2.519531 1.703125,-4.4375 0,-4.050781 -2.328125,-6.078125 -6.984375,-6.078125 h -6.3125 v 12.0625 z m 0,0"
               id="path431" />
          </g>
        </g>
      </g>
      <g
         fill="#ffffff"
         fill-opacity="1"
         id="g445">
        <g
           transform="translate(393.65053,51.362859)"
           id="g443">
          <g
             id="g441">
            <path
               d="m 7.921875,-29.375 v 10.984375 H 19.90625 v 3.53125 H 7.921875 V -3.53125 H 21.3125 V 0 H 3.625 V -32.921875 H 21.3125 V -29.375 Z m 0,0"
               id="path439" />
          </g>
        </g>
      </g>
      <g
         fill="#ffffff"
         fill-opacity="1"
         id="g453">
        <g
           transform="translate(445.25322,51.362859)"
           id="g451">
          <g
             id="g449">
            <path
               d="m 20.9375,0 -7.828125,-13.4375 h -5.1875 V 0 H 3.625 v -32.875 h 10.609375 c 2.488281,0 4.585937,0.429688 6.296875,1.28125 1.71875,0.84375 3,1.992188 3.84375,3.4375 0.851562,1.449219 1.28125,3.101562 1.28125,4.953125 0,2.261719 -0.65625,4.257813 -1.96875,5.984375 -1.304688,1.730469 -3.257812,2.882812 -5.859375,3.453125 L 26.078125,0 Z M 7.921875,-16.875 h 6.3125 c 2.332031,0 4.078125,-0.570312 5.234375,-1.71875 1.164062,-1.15625 1.75,-2.691406 1.75,-4.609375 0,-1.945313 -0.574219,-3.453125 -1.71875,-4.515625 -1.148438,-1.070312 -2.902344,-1.609375 -5.265625,-1.609375 h -6.3125 z m 0,0"
               id="path447" />
          </g>
        </g>
      </g>
    </g>
  </g>
</svg>
