<?xml version="1.0" encoding="UTF-8" standalone="no"?>
<svg
   width="2000"
   zoomAndPan="magnify"
   viewBox="0 0 1500 374.99998"
   height="500"
   preserveAspectRatio="xMidYMid"
   version="1.0"
   id="svg88"
   sodipodi:docname="logo.svg"
   inkscape:version="1.2.2 (b0a8486541, 2022-12-01)"
   xmlns:inkscape="http://www.inkscape.org/namespaces/inkscape"
   xmlns:sodipodi="http://sodipodi.sourceforge.net/DTD/sodipodi-0.dtd"
   xmlns="http://www.w3.org/2000/svg"
   xmlns:svg="http://www.w3.org/2000/svg">
  <sodipodi:namedview
     id="namedview90"
     pagecolor="#ffffff"
     bordercolor="#000000"
     borderopacity="0.25"
     inkscape:showpageshadow="2"
     inkscape:pageopacity="0.0"
     inkscape:pagecheckerboard="0"
     inkscape:deskcolor="#d1d1d1"
     showgrid="false"
     inkscape:zoom="0.118"
     inkscape:cx="1000"
     inkscape:cy="1004.2373"
     inkscape:window-width="1680"
     inkscape:window-height="981"
     inkscape:window-x="1680"
     inkscape:window-y="32"
     inkscape:window-maximized="1"
     inkscape:current-layer="svg88" />
  <defs
     id="defs10">
    <g
       id="g2" />
    <clipPath
       id="a661f3eae7">
      <path
         d="m 154.1875,619.75781 h 270 v 196.5 h -270 z m 0,0"
         clip-rule="nonzero"
         id="path4" />
    </clipPath>
    <clipPath
       id="9384e6e096">
      <rect
         x="0"
         width="485"
         y="0"
         height="189"
         id="rect7" />
    </clipPath>
  </defs>
  <g
     clip-path="url(#a661f3eae7)"
     id="g18"
     transform="matrix(1.1930825,0,0,1.1930825,-161.47494,-689.45424)">
    <path
       fill="#c1ff72"
       d="M 239.78906,650.74219 H 352.6875 l -15.28125,21.08984 87.08594,-52.03516 -42.88672,42.85547 -6.39844,19.46485 -23.30859,71.58203 c -9.03907,27.74219 -22.1836,31.37109 -43.14844,31.37109 h -81.52344 l 11.9375,-19.08203 -84.97656,50.39844 42.66406,-43.21094 6.41016,-19.47656 9.39453,-26.04297 c 7.02344,-19.46875 9.50391,-26.79688 32.82031,-26.79688 h 68.82813 c -9.58594,27.34766 -14.54297,31.375 -39.16407,31.375 -0.44531,0 -3.17968,-0.0352 -13.94921,0 -10.76954,0.0312 -17.1875,1.88672 -20.4375,11.77735 l -3.20704,9.6875 h 60.16016 c 14.69141,0 20.82813,1.61719 25.40625,-12.32422 l 15.08203,-46.69141 c 3.15625,-9.24218 1.06641,-12.5664 -9.73828,-12.5664 h -54.49219 c -29.41797,0 -32.85937,-23.4961 -34.17578,-31.375"
       fill-opacity="1"
       fill-rule="evenodd"
       id="path16" />
  </g>
  <g
     transform="matrix(1.1930825,0,0,1.1930825,303.82722,49.063807)"
     id="g54">
    <g
       clip-path="url(#9384e6e096)"
       id="g52">
      <g
         fill="#ffffff"
         fill-opacity="1"
         id="g26">
        <g
           transform="translate(2.731547,156.75169)"
           id="g24">
          <g
             id="g22">
            <path
               d="m 93.8125,-21.890625 v -54.71875 c 0,-3.03125 -1.070312,-5.613281 -3.203125,-7.75 C 88.472656,-86.492188 85.894531,-87.5625 82.875,-87.5625 H 28.140625 v -21.89063 H 82.875 c 6.039062,0 11.535156,1.48438 16.484375,4.45313 4.957035,2.96875 8.921875,6.933594 11.890625,11.890625 2.96875,4.949219 4.45313,10.449219 4.45313,16.5 v 54.71875 z M 6.25,0 v -87.5625 h 21.890625 v 65.671875 H 93.8125 V 0 Z m 0,0"
               id="path20" />
          </g>
        </g>
      </g>
      <g
         fill="#ffffff"
         fill-opacity="1"
         id="g34">
        <g
           transform="translate(124.6818,156.75169)"
           id="g32">
          <g
             id="g30">
            <path
               d="m 93.8125,0 v -76.609375 c 0,-3.03125 -1.09375,-5.613281 -3.28125,-7.75 -2.1875,-2.132813 -4.792969,-3.203125 -7.8125,-3.203125 H 27.984375 v -21.89063 H 82.71875 c 6.039062,0 11.5625,1.48438 16.5625,4.45313 5.00781,2.96875 9,6.933594 11.96875,11.890625 2.96875,4.949219 4.45313,10.449219 4.45313,16.5 V 0 Z M 6.25,0 v -87.5625 h 21.734375 v 32.84375 H 82.875 v 21.890625 H 27.984375 V 0 Z m 0,0"
               id="path28" />
          </g>
        </g>
      </g>
      <g
         fill="#ffffff"
         fill-opacity="1"
         id="g42">
        <g
           transform="translate(246.63206,156.75169)"
           id="g40">
          <g
             id="g38">
            <path
               d="M 93.8125,0 C 87.875,0 82.738281,-1.457031 78.40625,-4.375 74.082031,-7.289062 70.304688,-11.195312 67.078125,-16.09375 63.847656,-21 60.925781,-26.472656 58.3125,-32.515625 c -2.605469,-6.050781 -5.105469,-12.203125 -7.5,-18.453125 -1.25,-3.125 -2.65625,-6.742188 -4.21875,-10.859375 -1.5625,-4.125 -3.308594,-8.164063 -5.234375,-12.125 -1.929687,-3.96875 -4.015625,-7.226563 -6.265625,-9.78125 -2.242188,-2.550781 -4.558594,-3.828125 -6.953125,-3.828125 v -21.89063 c 5.738281,0 10.71875,1.32813 14.9375,3.98438 4.21875,2.65625 7.941406,6.335938 11.171875,11.03125 3.238281,4.6875 6.210938,10.085938 8.921875,16.1875 2.707031,6.09375 5.363281,12.632812 7.96875,19.609375 1.144531,3.03125 2.523437,6.605469 4.140625,10.71875 1.613281,4.117187 3.410156,8.15625 5.390625,12.125 1.988281,3.960937 4.101563,7.265625 6.34375,9.921875 2.238281,2.65625 4.503906,3.984375 6.796875,3.984375 z m 0,-21.890625 v -87.562505 h 21.89063 v 87.562505 z M 6.25,0 V -87.5625 H 28.140625 V 0 Z m 0,0"
               id="path36" />
          </g>
        </g>
      </g>
      <g
         fill="#ffffff"
         fill-opacity="1"
         id="g50">
        <g
           transform="translate(368.58231,156.75169)"
           id="g48">
          <g
             id="g46">
            <path
               d="m 6.25,-87.5625 v -21.89063 H 106.32813 V -87.5625 Z M 78.1875,0 C 72.238281,0 66.785156,-1.484375 61.828125,-4.453125 56.878906,-7.421875 52.921875,-11.40625 49.953125,-16.40625 46.984375,-21.414062 45.5,-26.890625 45.5,-32.828125 v -43.78125 h 21.734375 v 43.78125 c 0,3.023437 1.09375,5.601563 3.28125,7.734375 2.1875,2.136719 4.742187,3.203125 7.671875,3.203125 h 28.14063 V 0 Z M 6.25,0 V -21.890625 H 45.34375 V 0 Z m 0,0"
               id="path44" />
          </g>
        </g>
      </g>
    </g>
  </g>
  <g
     fill="#a6a6a6"
     fill-opacity="1"
     id="g62"
     transform="matrix(1.1930825,0,0,1.1930825,-161.47494,-689.45424)">
    <g
       transform="translate(882.70643,776.95731)"
       id="g60">
      <g
         id="g58">
        <path
           d="m 93.828125,0 v -76.625 c 0,-3.03125 -1.09375,-5.613281 -3.28125,-7.75 -2.1875,-2.132812 -4.792969,-3.203125 -7.8125,-3.203125 H 28 v -21.890625 h 54.734375 c 6.039063,0 11.5625,1.48437 16.5625,4.45312 5.007815,2.96875 9.000005,6.933599 11.968755,11.89063 2.97656,4.949219 4.46875,10.449219 4.46875,16.5 V 0 Z M 6.25,0 V -87.578125 H 28 v 32.84375 H 82.890625 V -32.84375 H 28 V 0 Z m 0,0"
           id="path56" />
      </g>
    </g>
  </g>
  <g
     fill="#a6a6a6"
     fill-opacity="1"
     id="g70"
     transform="matrix(1.1930825,0,0,1.1930825,-161.47494,-689.45424)">
    <g
       transform="translate(1004.6881,776.95731)"
       id="g68">
      <g
         id="g66">
        <path
           d="M 39.09375,0 C 33.050781,0 27.550781,-1.484375 22.59375,-4.453125 17.644531,-7.429688 13.679688,-11.394531 10.703125,-16.34375 7.734375,-21.289062 6.25,-26.789062 6.25,-32.84375 v -76.625 h 21.90625 v 76.625 c 0,3.023438 1.066406,5.605469 3.203125,7.75 2.132813,2.136719 4.710937,3.203125 7.734375,3.203125 h 67.25 V 0 Z m 0,0"
           id="path64" />
      </g>
    </g>
  </g>
  <g
     fill="#a6a6a6"
     fill-opacity="1"
     id="g78"
     transform="matrix(1.1930825,0,0,1.1930825,-161.47494,-689.45424)">
    <g
       transform="translate(1092.2629,776.95731)"
       id="g76">
      <g
         id="g74">
        <path
           d="M 61,0 C 55.050781,0 49.988281,-1.484375 45.8125,-4.453125 41.644531,-7.429688 38.179688,-11.394531 35.421875,-16.34375 c -2.761719,-4.945312 -5.136719,-10.519531 -7.125,-16.71875 -1.980469,-6.207031 -3.75,-12.546875 -5.3125,-19.015625 -0.730469,-3.019531 -1.617187,-6.535156 -2.65625,-10.546875 -1.042969,-4.019531 -2.265625,-7.929688 -3.671875,-11.734375 -1.40625,-3.8125 -2.96875,-6.96875 -4.6875,-9.46875 -1.71875,-2.5 -3.625,-3.75 -5.71875,-3.75 v -21.890625 c 5.84375,0 10.769531,1.35547 14.78125,4.0625 4.019531,2.71094 7.410156,6.464844 10.171875,11.265625 2.757813,4.792969 5.15625,10.34375 7.1875,16.65625 2.03125,6.304687 3.9375,13 5.71875,20.09375 0.832031,3.125 1.796875,6.804687 2.890625,11.03125 1.09375,4.21875 2.316406,8.308594 3.671875,12.265625 1.351563,3.960938 2.890625,7.246094 4.609375,9.859375 1.71875,2.605469 3.625,3.90625 5.71875,3.90625 2.082031,0 4.007812,-1.351563 5.78125,-4.0625 1.769531,-2.71875 3.332031,-6.109375 4.6875,-10.171875 1.351562,-4.0625 2.550781,-8.148438 3.59375,-12.265625 1.039062,-4.125 1.925781,-7.644531 2.65625,-10.5625 1.675781,-6.78125 3.503906,-13.269531 5.484375,-19.46875 1.976563,-6.207031 4.347656,-11.757813 7.109375,-16.65625 2.757812,-4.90625 6.195312,-8.789065 10.3125,-11.656255 4.125,-2.86328 9.16016,-4.29687 15.10938,-4.29687 v 21.890625 c -2.19922,0 -4.15625,1.25 -5.875,3.75 -1.71875,2.5 -3.25782,5.683594 -4.60938,9.546875 -1.35547,3.855469 -2.55469,7.765625 -3.59375,11.734375 -1.04297,3.960937 -1.929688,7.449219 -2.65625,10.46875 -1.875,7.199219 -3.835938,13.953125 -5.875,20.265625 -2.03125,6.304688 -4.429688,11.855469 -7.1875,16.65625 -2.761719,4.792969 -6.152344,8.515625 -10.171875,11.171875 C 71.753906,-1.328125 66.832031,0 61,0 Z m 0,0"
           id="path72" />
      </g>
    </g>
  </g>
  <g
     fill="#a6a6a6"
     fill-opacity="1"
     id="g86"
     transform="matrix(1.1930825,0,0,1.1930825,-161.47494,-689.45424)">
    <g
       transform="translate(1211.1166,776.95731)"
       id="g84">
      <g
         id="g82">
        <path
           d="m 93.828125,0 v -76.625 c 0,-3.03125 -1.09375,-5.613281 -3.28125,-7.75 -2.1875,-2.132812 -4.792969,-3.203125 -7.8125,-3.203125 H 28 v -21.890625 h 54.734375 c 6.039063,0 11.5625,1.48437 16.5625,4.45312 5.007815,2.96875 9.000005,6.933599 11.968755,11.89063 2.97656,4.949219 4.46875,10.449219 4.46875,16.5 V 0 Z M 6.25,0 V -87.578125 H 28 v 32.84375 H 82.890625 V -32.84375 H 28 V 0 Z m 0,0"
           id="path80" />
      </g>
    </g>
  </g>
</svg>
